HIERARCHY
ROOT Hips
{
	OFFSET	0.00	0.00	0.00
	CHANNELS 6 Xposition Yposition Zposition Zrotation Xrotation Yrotation
	JOINT LeftHip
	{
		OFFSET	 3.430000	 0.000000	 0.000000
		CHANNELS 3 Zrotation Xrotation Yrotation
		JOINT LeftKnee
		{
			OFFSET	 0.000000	-18.469999	 0.000000
			CHANNELS 3 Zrotation Xrotation Yrotation
			JOINT LeftAnkle
			{
				OFFSET	 0.000000	-17.950001	 0.000000
				CHANNELS 3 Zrotation Xrotation Yrotation
				End Site 
				{
					OFFSET	 0.000000	-3.119999	 0.000000
				}
			}
		}
	}
	JOINT RightHip
	{
		OFFSET	-3.430000	 0.000000	 0.000000
		CHANNELS 3 Zrotation Xrotation Yrotation
		JOINT RightKnee
		{
			OFFSET	 0.000000	-18.809999	 0.000000
			CHANNELS 3 Zrotation Xrotation Yrotation
			JOINT RightAnkle
			{
				OFFSET	 0.000000	-17.570000	 0.000000
				CHANNELS 3 Zrotation Xrotation Yrotation
				End Site 
				{
					OFFSET	 0.000000	-3.250000	 0.000000
				}
			}
		}
	}
	JOINT Chest
	{
		OFFSET	 0.000000	 4.570000	 0.000000
		CHANNELS 3 Zrotation Xrotation Yrotation
		JOINT LeftCollar
		{
			OFFSET	 1.060000	 15.330000	 1.760000
			CHANNELS 3 Zrotation Xrotation Yrotation
			JOINT LeftShoulder
			{
				OFFSET	 5.810000	 0.000000	 0.000000
				CHANNELS 3 Zrotation Xrotation Yrotation
				JOINT LeftElbow
				{
					OFFSET	 0.000000	-12.080000	 0.000000
					CHANNELS 3 Zrotation Xrotation Yrotation
					JOINT LeftWrist
					{
						OFFSET	 0.000000	-9.820000	 0.000000
						CHANNELS 3 Zrotation Xrotation Yrotation
						End Site 
						{
							OFFSET	 0.000000	-7.370000	 0.000000
						}
					}
				}
			}
		}
		JOINT RightCollar
		{
			OFFSET	-1.060000	 15.330000	 1.760000
			CHANNELS 3 Zrotation Xrotation Yrotation
			JOINT RightShoulder
			{
				OFFSET	-6.060000	 0.000000	 0.000000
				CHANNELS 3 Zrotation Xrotation Yrotation
				JOINT RightElbow
				{
					OFFSET	 0.000000	-11.900000	 0.000000
					CHANNELS 3 Zrotation Xrotation Yrotation
					JOINT RightWrist
					{
						OFFSET	 0.000000	-9.520000	 0.000000
						CHANNELS 3 Zrotation Xrotation Yrotation
						End Site 
						{
							OFFSET	 0.000000	-7.140000	 0.000000
						}
					}
				}
			}
		}
		JOINT Neck
		{
			OFFSET	 0.000000	 17.620001	 0.000000
			CHANNELS 3 Zrotation Xrotation Yrotation
			JOINT Head
			{
				OFFSET	 0.000000	 5.190000	 0.000000
				CHANNELS 3 Zrotation Xrotation Yrotation
				End Site 
				{
					OFFSET	 0.000000	 4.139999	 0.000000
				}
			}
		}
	}
}
MOTION
Frames:     20
Frame Time: 0.033333
 0.00	 39.68	 0.00	 0.65	-14.85	-0.72	 6.03	 18.85	-1.96	 1.84	 1.50	 13.41	-3.84	-3.16	 1.70	-6.15	 22.25	 2.34	 0.81	-2.92	-29.03	-7.16	-4.92	 2.27	-2.17	 15.18	-0.15	-4.18	 0.00	 5.27	 68.32	-8.75	 70.68	 0.00	-19.06	 19.90	 0.00	 0.00	 0.00	 6.60	 0.00	-0.32	-69.67	 3.92	-47.24	 0.00	-19.68	-27.33	 0.00	 0.00	 0.00	 3.80	 42.79	 0.00	-1.90	-40.35	-1.92	
 0.00	 39.68	 0.00	 0.62	-14.79	-0.82	 6.08	 18.81	-1.97	 1.73	 1.48	 13.56	-3.84	-3.33	 1.69	-6.13	 22.15	 2.32	 0.84	-2.93	-28.71	-7.17	-5.11	 2.24	-2.17	 15.28	-0.07	-3.98	 0.00	 5.70	 68.17	-9.34	 71.24	 0.00	-18.95	 20.03	 0.00	 0.00	 0.00	 6.28	 0.00	-0.85	-69.34	 3.19	-47.15	 0.00	-19.79	-27.26	 0.00	 0.00	 0.00	 3.50	 41.91	 0.00	-1.34	-39.59	-1.46	
-0.01	 39.68	-0.01	 0.60	-14.75	-0.90	 6.08	 18.78	-1.96	 1.72	 1.45	 13.63	-3.84	-3.40	 1.69	-6.13	 22.09	 2.31	 0.88	-2.95	-28.51	-7.17	-5.26	 2.22	-2.16	 15.38	 0.03	-3.79	 0.00	 5.97	 67.96	-9.71	 71.26	 0.00	-18.95	 20.04	 0.00	 0.00	 0.00	 6.04	 0.00	-1.24	-69.05	 2.76	-46.75	 0.00	-20.08	-27.26	 0.00	 0.00	 0.00	 3.36	 41.20	 0.00	-1.09	-38.93	-1.26	
-0.01	 39.68	-0.03	 0.58	-14.69	-0.99	 6.09	 18.72	-1.96	 1.69	 1.46	 13.70	-3.84	-3.42	 1.69	-6.13	 22.02	 2.31	 0.88	-2.97	-28.41	-7.17	-5.29	 2.22	-2.17	 15.38	 0.11	-3.75	 0.00	 6.10	 67.92	-9.87	 71.36	 0.00	-18.95	 20.03	 0.00	 0.00	 0.00	 5.94	 0.00	-1.37	-68.88	 2.60	-46.26	 0.00	-20.37	-27.30	 0.00	 0.00	 0.00	 3.34	 40.97	 0.00	-1.00	-38.71	-1.21	
-0.01	 39.68	-0.04	 0.56	-14.64	-1.09	 6.08	 18.69	-1.96	 1.68	 1.43	 13.80	-3.84	-3.40	 1.69	-6.14	 21.92	 2.30	 0.87	-2.96	-28.28	-7.17	-5.27	 2.22	-2.16	 15.34	 0.19	-3.72	 0.00	 6.17	 67.88	-9.98	 71.63	 0.00	-18.91	 20.10	 0.00	 0.00	 0.00	 5.89	 0.00	-1.44	-68.81	 2.51	-45.85	 0.00	-20.58	-27.35	 0.00	 0.00	 0.00	 3.30	 40.86	 0.00	-0.93	-38.63	-1.21	
-0.01	 39.67	-0.05	 0.56	-14.62	-1.15	 6.06	 18.67	-1.95	 1.69	 1.42	 13.89	-3.84	-3.36	 1.69	-6.16	 21.88	 2.30	 0.85	-2.95	-28.30	-7.17	-5.22	 2.23	-2.19	 15.35	 0.26	-3.70	 0.00	 6.24	 67.86	-10.12	 72.34	 0.00	-18.84	 20.18	 0.00	 0.00	 0.00	 5.86	 0.00	-1.52	-68.78	 2.38	-45.92	 0.00	-20.50	-27.34	 0.00	 0.00	 0.00	 3.29	 40.73	 0.00	-0.96	-38.51	-1.24	
-0.01	 39.67	-0.05	 0.57	-14.61	-1.16	 6.04	 18.65	-1.94	 1.70	 1.42	 13.89	-3.84	-3.31	 1.69	-6.18	 21.85	 2.31	 0.85	-2.94	-28.33	-7.17	-5.14	 2.24	-2.20	 15.36	 0.28	-3.63	 0.00	 6.30	 67.79	-10.26	 73.01	 0.00	-18.76	 20.30	 0.00	 0.00	 0.00	 5.82	 0.00	-1.63	-68.77	 2.25	-46.05	 0.00	-20.39	-27.32	 0.00	 0.00	 0.00	 3.17	 40.59	 0.00	-0.82	-38.35	-1.09	
-0.01	 39.67	-0.05	 0.60	-14.61	-1.12	 6.02	 18.65	-1.93	 1.72	 1.44	 13.84	-3.84	-3.29	 1.70	-6.19	 21.88	 2.31	 0.84	-2.98	-28.37	-7.17	-5.13	 2.24	-2.23	 15.35	 0.23	-3.61	 0.00	 6.35	 67.77	-10.31	 73.19	 0.00	-18.76	 20.31	 0.00	 0.00	 0.00	 5.77	 0.00	-1.65	-68.68	 2.22	-45.81	 0.00	-20.54	-27.35	 0.00	 0.00	 0.00	 3.03	 40.46	 0.00	-0.72	-38.11	-0.90	
-0.01	 39.67	-0.04	 0.61	-14.72	-1.05	 6.04	 18.73	-1.95	 1.71	 1.46	 13.78	-3.84	-3.27	 1.70	-6.19	 22.02	 2.33	 0.88	-3.00	-28.36	-7.17	-5.23	 2.23	-2.24	 15.42	 0.16	-3.64	 0.00	 6.31	 67.82	-10.25	 73.35	 0.00	-18.72	 20.36	 0.00	 0.00	 0.00	 5.79	 0.00	-1.57	-68.65	 2.31	-45.46	 0.00	-20.77	-27.39	 0.00	 0.00	 0.00	 2.95	 40.47	 0.00	-0.70	-37.96	-0.77	
-0.02	 39.68	-0.03	 0.62	-14.80	-1.00	 6.06	 18.81	-1.96	 1.70	 1.47	 13.74	-3.84	-3.31	 1.69	-6.18	 22.12	 2.33	 0.87	-2.99	-28.41	-7.17	-5.22	 2.23	-2.27	 15.45	 0.09	-3.72	 0.00	 6.33	 67.91	-10.20	 73.23	 0.00	-18.74	 20.35	 0.00	 0.00	 0.00	 5.87	 0.00	-1.45	-68.72	 2.45	-45.40	 0.00	-20.80	-27.42	 0.00	 0.00	 0.00	 2.93	 40.57	 0.00	-0.72	-37.97	-0.66	
-0.02	 39.68	-0.03	 0.61	-14.83	-0.97	 6.07	 18.83	-1.97	 1.71	 1.49	 13.68	-3.84	-3.32	 1.69	-6.15	 22.15	 2.32	 0.83	-2.96	-28.57	-7.17	-5.14	 2.24	-2.25	 15.45	 0.08	-3.80	 0.00	 6.28	 68.00	-10.14	 73.06	 0.00	-18.74	 20.35	 0.00	 0.00	 0.00	 5.84	 0.00	-1.43	-68.77	 2.54	-46.11	 0.00	-20.48	-27.33	 0.00	 0.00	 0.00	 2.90	 40.56	 0.00	-0.70	-37.92	-0.63	
-0.02	 39.68	-0.03	 0.60	-14.85	-0.96	 6.10	 18.85	-1.98	 1.69	 1.51	 13.67	-3.84	-3.34	 1.69	-6.13	 22.13	 2.32	 0.84	-2.88	-28.55	-7.17	-5.17	 2.23	-2.24	 15.49	 0.11	-3.79	 0.00	 6.32	 67.98	-10.19	 72.89	 0.00	-18.76	 20.32	 0.00	 0.00	 0.00	 5.80	 0.00	-1.54	-68.89	 2.50	-47.14	 0.00	-19.86	-27.20	 0.00	 0.00	 0.00	 2.94	 40.38	 0.00	-0.79	-37.84	-0.77	
-0.02	 39.67	-0.03	 0.62	-14.88	-0.94	 6.11	 18.85	-1.98	 1.68	 1.54	 13.63	-3.84	-3.32	 1.69	-6.14	 22.13	 2.32	 0.86	-2.84	-28.47	-7.17	-5.25	 2.22	-2.28	 15.56	 0.14	-3.76	 0.00	 6.41	 67.97	-10.31	 72.86	 0.00	-18.75	 20.34	 0.00	 0.00	 0.00	 5.75	 0.00	-1.68	-68.93	 2.40	-48.19	 0.00	-19.35	-27.05	 0.00	 0.00	 0.00	 2.94	 40.03	 0.00	-0.70	-37.57	-0.81	
-0.03	 39.67	-0.04	 0.63	-14.93	-0.90	 6.13	 18.87	-1.99	 1.67	 1.56	 13.60	-3.84	-3.27	 1.70	-6.12	 22.17	 2.32	 0.86	-2.84	-28.45	-7.17	-5.33	 2.21	-2.29	 15.66	 0.15	-3.71	 0.00	 6.49	 67.93	-10.45	 72.94	 0.00	-18.73	 20.37	 0.00	 0.00	 0.00	 5.65	 0.00	-1.87	-68.87	 2.21	-48.97	 0.00	-19.07	-26.89	 0.00	 0.00	 0.00	 2.92	 39.70	 0.00	-0.62	-37.29	-0.83	
-0.03	 39.67	-0.04	 0.62	-14.94	-0.88	 6.14	 18.87	-1.99	 1.68	 1.57	 13.58	-3.84	-3.27	 1.70	-6.12	 22.18	 2.32	 0.89	-2.83	-28.50	-7.17	-5.34	 2.21	-2.28	 15.65	 0.15	-3.74	 0.00	 6.42	 67.95	-10.38	 72.87	 0.00	-18.76	 20.32	 0.00	 0.00	 0.00	 5.66	 0.00	-1.93	-68.90	 2.15	-49.21	 0.00	-18.99	-26.84	 0.00	 0.00	 0.00	 2.84	 39.63	 0.00	-0.41	-37.21	-0.79	
-0.03	 39.67	-0.04	 0.62	-14.90	-0.88	 6.13	 18.83	-1.99	 1.69	 1.58	 13.58	-3.84	-3.26	 1.70	-6.11	 22.13	 2.31	 0.87	-2.80	-28.57	-7.17	-5.26	 2.22	-2.30	 15.59	 0.16	-3.73	 0.00	 6.36	 67.96	-10.32	 72.90	 0.00	-18.77	 20.32	 0.00	 0.00	 0.00	 5.63	 0.00	-1.85	-68.86	 2.25	-49.26	 0.00	-19.00	-26.83	 0.00	 0.00	 0.00	 2.82	 39.60	 0.00	-0.28	-37.13	-0.75	
-0.03	 39.67	-0.05	 0.63	-14.90	-0.90	 6.12	 18.82	-1.98	 1.69	 1.58	 13.58	-3.84	-3.23	 1.70	-6.12	 22.11	 2.31	 0.85	-2.78	-28.57	-7.17	-5.21	 2.23	-2.34	 15.54	 0.18	-3.78	 0.00	 6.27	 68.03	-10.24	 72.96	 0.00	-18.78	 20.30	 0.00	 0.00	 0.00	 5.62	 0.00	-1.78	-68.80	 2.32	-49.29	 0.00	-19.05	-26.81	 0.00	 0.00	 0.00	 2.83	 39.75	 0.00	-0.21	-37.24	-0.79	
-0.03	 39.67	-0.05	 0.61	-14.86	-0.93	 6.15	 18.78	-1.99	 1.67	 1.59	 13.59	-3.84	-3.23	 1.70	-6.13	 22.06	 2.31	 0.88	-2.75	-28.51	-7.17	-5.21	 2.23	-2.33	 15.44	 0.21	-3.82	 0.00	 6.15	 68.06	-10.11	 72.89	 0.00	-18.80	 20.27	 0.00	 0.00	 0.00	 5.64	 0.00	-1.72	-68.82	 2.39	-49.24	 0.00	-19.05	-26.82	 0.00	 0.00	 0.00	 2.85	 39.91	 0.00	-0.21	-37.30	-0.84	
-0.03	 39.67	-0.05	 0.60	-14.85	-0.95	 6.15	 18.78	-1.99	 1.66	 1.56	 13.67	-3.84	-3.26	 1.70	-6.12	 22.01	 2.30	 0.88	-2.68	-28.45	-7.17	-5.30	 2.22	-2.34	 15.37	 0.24	-3.86	 0.00	 6.05	 68.09	-10.01	 72.84	 0.00	-18.83	 20.25	 0.00	 0.00	 0.00	 5.70	 0.00	-1.63	-68.86	 2.47	-49.32	 0.00	-19.08	-26.79	 0.00	 0.00	 0.00	 2.87	 40.12	 0.00	-0.23	-37.44	-0.90	
-0.03	 39.68	-0.06	 0.58	-14.78	-1.00	 6.17	 18.72	-1.99	 1.64	 1.55	 13.71	-3.84	-3.35	 1.69	-6.09	 21.88	 2.28	 0.84	-2.61	-28.55	-7.17	-5.29	 2.22	-2.32	 15.30	 0.29	-3.91	 0.00	 6.04	 68.12	-10.00	 72.66	 0.00	-18.89	 20.18	 0.00	 0.00	 0.00	 5.76	 0.00	-1.68	-68.93	 2.40	-49.37	 0.00	-19.09	-26.76	 0.00	 0.00	 0.00	 2.90	 40.13	 0.00	-0.37	-37.44	-1.00	
